<?xml version="1.0" encoding="UTF-8"?>
<svg id="Layer_1" data-name="Layer 1" xmlns="http://www.w3.org/2000/svg" viewBox="0 0 1417.32 1417.32">
  <defs>
    <style>
      .cls-1 {
        fill: #e23326;
      }
    </style>
  </defs>
  <path class="cls-1" d="M1061.88,1232.25c-6.47,0-12.98-.29-19.52-.89-68.28-6.28-129.6-45.43-164.05-104.71l-243.84-419.7c-13.64-23.47-5.66-53.56,17.81-67.2,23.49-13.64,53.56-5.66,67.2,17.81l243.84,419.7c18.48,31.82,51.4,52.83,88.04,56.2,51.54,4.74,99.85-25.92,117.49-74.56l6.22-17.13c11.57-31.88,8.39-66.98-8.72-96.28l-350.4-600.01c-11.67-19.99-28.91-35.76-49.85-45.62l-11.98-5.63c-29.71-13.98-63.99-14.47-94.07-1.33l-13.16,5.75c-22.2,9.69-41.08,26.59-53.16,47.6L250.53,943c-16.47,28.65-19.7,62.98-8.84,94.2l5.15,14.81c17.71,50.91,69.35,82.66,122.75,75.46l6.71-.9c34.81-4.68,66.03-25.63,83.55-56.05l64.5-112.02c13.55-23.52,43.6-31.62,67.13-18.07,23.53,13.55,31.62,43.6,18.08,67.13l-64.5,112.02c-32.63,56.68-90.81,95.72-155.63,104.43l-6.71.9c-99.58,13.38-195.74-45.75-228.73-140.6l-5.15-14.81c-20.23-58.16-14.22-122.13,16.48-175.51L508.53,297.23c22.51-39.13,57.68-70.62,99.04-88.68l13.15-5.75c56.06-24.48,119.94-23.57,175.27,2.47l11.98,5.64c39.03,18.36,71.15,47.76,92.89,85l350.4,600.01c31.88,54.59,37.79,119.97,16.23,179.39l-6.22,17.12c-30.64,84.45-110.91,139.82-199.4,139.82Z"/>
</svg>