<?xml version="1.0" encoding="UTF-8"?>
<svg id="Layer_1" data-name="Layer 1" xmlns="http://www.w3.org/2000/svg" viewBox="0 0 1114.39 240.39">
  <defs>
    <style>
      .cls-1 {
        fill: #e23326;
      }
    </style>
  </defs>
  <path class="cls-1" d="M212.3,240.39c-1.49,0-2.98-.07-4.48-.21-15.67-1.44-29.75-10.43-37.66-24.04l-55.97-96.35c-3.13-5.39-1.3-12.3,4.09-15.43,5.39-3.13,12.3-1.3,15.43,4.09l55.97,96.34c4.24,7.3,11.8,12.13,20.21,12.9,11.83,1.09,22.92-5.95,26.97-17.12l1.43-3.93c2.66-7.32,1.93-15.38-2-22.1L155.85,36.82c-2.68-4.59-6.64-8.21-11.44-10.47l-2.75-1.29c-6.82-3.21-14.69-3.32-21.59-.31l-3.02,1.32c-5.1,2.23-9.43,6.11-12.2,10.93L26.05,173.99c-3.78,6.58-4.52,14.46-2.03,21.62l1.18,3.4c4.07,11.69,15.92,18.98,28.18,17.32l1.54-.21c7.99-1.07,15.16-5.88,19.18-12.87l14.81-25.72c3.11-5.4,10.01-7.26,15.41-4.15,5.4,3.11,7.26,10.01,4.15,15.41l-14.81,25.71c-7.49,13.01-20.85,21.97-35.73,23.97l-1.54.21c-22.86,3.07-44.93-10.5-52.51-32.28l-1.18-3.4c-4.64-13.35-3.26-28.04,3.78-40.29L85.28,25.75c5.17-8.98,13.24-16.21,22.74-20.36l3.02-1.32c12.87-5.62,27.53-5.41,40.23.57l2.75,1.29c8.96,4.22,16.33,10.96,21.32,19.51l80.44,137.74c7.32,12.53,8.67,27.54,3.73,41.18l-1.43,3.93c-7.03,19.39-25.46,32.1-45.77,32.1Z"/>
  <g>
    <path class="cls-1" d="M293.3,98.22c2.96-5.48,6.98-9.74,12.08-12.78,5.1-3.04,10.73-4.56,16.9-4.56,5.57,0,10.43,1.09,14.58,3.28,4.15,2.18,7.47,4.9,9.96,8.16v-10.28h14.78v70.8h-14.78v-10.54c-2.49,3.34-5.87,6.12-10.15,8.35-4.28,2.23-9.17,3.34-14.65,3.34-6.08,0-11.65-1.56-16.7-4.69-5.06-3.13-9.06-7.5-12.01-13.11-2.96-5.61-4.43-11.97-4.43-19.08s1.48-13.4,4.43-18.89ZM343.8,104.65c-2.01-3.6-4.65-6.34-7.9-8.22-3.26-1.88-6.77-2.83-10.54-2.83s-7.28.92-10.54,2.76c-3.26,1.84-5.89,4.54-7.9,8.09-2.01,3.56-3.02,7.77-3.02,12.66s1.01,9.17,3.02,12.85c2.01,3.68,4.67,6.49,7.97,8.42,3.3,1.93,6.79,2.89,10.47,2.89s7.28-.94,10.54-2.83c3.25-1.88,5.89-4.65,7.9-8.29,2.01-3.64,3.02-7.9,3.02-12.79s-1.01-9.12-3.02-12.72Z"/>
    <path class="cls-1" d="M391.6,150.97c-4.41-2.01-7.9-4.75-10.47-8.22-2.57-3.47-3.94-7.34-4.11-11.63h15.16c.26,3,1.69,5.5,4.3,7.52,2.61,2.01,5.89,3.02,9.83,3.02s7.3-.79,9.57-2.38c2.27-1.58,3.41-3.62,3.41-6.1,0-2.65-1.27-4.63-3.79-5.91-2.53-1.28-6.53-2.7-12.01-4.24-5.31-1.46-9.64-2.87-12.98-4.24-3.34-1.37-6.23-3.47-8.67-6.3-2.44-2.83-3.66-6.55-3.66-11.18,0-3.77,1.11-7.22,3.34-10.34,2.23-3.13,5.42-5.59,9.57-7.39,4.15-1.8,8.93-2.7,14.33-2.7,8.05,0,14.54,2.04,19.47,6.1,4.92,4.07,7.56,9.62,7.9,16.64h-14.65c-.26-3.17-1.54-5.7-3.85-7.58-2.31-1.88-5.44-2.83-9.38-2.83s-6.81.73-8.87,2.18c-2.06,1.46-3.08,3.38-3.08,5.78,0,1.89.68,3.47,2.06,4.75,1.37,1.29,3.04,2.29,5.01,3.02,1.97.73,4.88,1.65,8.74,2.76,5.14,1.37,9.36,2.76,12.66,4.18,3.3,1.41,6.15,3.49,8.54,6.23,2.4,2.74,3.64,6.38,3.73,10.92,0,4.03-1.11,7.62-3.34,10.79-2.23,3.17-5.38,5.65-9.44,7.45-4.07,1.8-8.85,2.7-14.33,2.7s-10.56-1.01-14.97-3.02Z"/>
    <path class="cls-1" d="M460.21,150.97c-4.41-2.01-7.9-4.75-10.47-8.22-2.57-3.47-3.94-7.34-4.11-11.63h15.16c.26,3,1.69,5.5,4.3,7.52,2.61,2.01,5.89,3.02,9.83,3.02s7.3-.79,9.57-2.38c2.27-1.58,3.41-3.62,3.41-6.1,0-2.65-1.27-4.63-3.79-5.91-2.53-1.28-6.53-2.7-12.01-4.24-5.31-1.46-9.64-2.87-12.98-4.24-3.34-1.37-6.23-3.47-8.67-6.3-2.44-2.83-3.66-6.55-3.66-11.18,0-3.77,1.11-7.22,3.34-10.34,2.23-3.13,5.42-5.59,9.57-7.39,4.15-1.8,8.93-2.7,14.33-2.7,8.05,0,14.54,2.04,19.47,6.1,4.92,4.07,7.56,9.62,7.9,16.64h-14.65c-.26-3.17-1.54-5.7-3.85-7.58-2.31-1.88-5.44-2.83-9.38-2.83s-6.81.73-8.87,2.18c-2.06,1.46-3.08,3.38-3.08,5.78,0,1.89.68,3.47,2.06,4.75,1.37,1.29,3.04,2.29,5.01,3.02,1.97.73,4.88,1.65,8.74,2.76,5.14,1.37,9.36,2.76,12.66,4.18,3.3,1.41,6.15,3.49,8.54,6.23,2.4,2.74,3.64,6.38,3.73,10.92,0,4.03-1.12,7.62-3.34,10.79-2.23,3.17-5.38,5.65-9.44,7.45-4.07,1.8-8.85,2.7-14.33,2.7s-10.56-1.01-14.97-3.02Z"/>
    <path class="cls-1" d="M518.86,69.96c-1.8-1.8-2.7-4.03-2.7-6.68s.9-4.88,2.7-6.68,4.03-2.7,6.68-2.7,4.75.9,6.55,2.7,2.7,4.03,2.7,6.68-.9,4.88-2.7,6.68-3.98,2.7-6.55,2.7-4.88-.9-6.68-2.7ZM532.74,82.03v70.8h-14.65v-70.8h14.65Z"/>
    <path class="cls-1" d="M562.74,150.97c-4.41-2.01-7.9-4.75-10.47-8.22-2.57-3.47-3.94-7.34-4.11-11.63h15.16c.26,3,1.69,5.5,4.3,7.52,2.61,2.01,5.89,3.02,9.83,3.02s7.3-.79,9.57-2.38c2.27-1.58,3.41-3.62,3.41-6.1,0-2.65-1.26-4.63-3.79-5.91-2.53-1.28-6.53-2.7-12.01-4.24-5.31-1.46-9.64-2.87-12.98-4.24-3.34-1.37-6.23-3.47-8.67-6.3-2.44-2.83-3.66-6.55-3.66-11.18,0-3.77,1.11-7.22,3.34-10.34,2.23-3.13,5.42-5.59,9.57-7.39,4.15-1.8,8.93-2.7,14.33-2.7,8.05,0,14.54,2.04,19.47,6.1,4.92,4.07,7.56,9.62,7.9,16.64h-14.65c-.26-3.17-1.54-5.7-3.86-7.58-2.31-1.88-5.44-2.83-9.38-2.83s-6.81.73-8.87,2.18c-2.06,1.46-3.08,3.38-3.08,5.78,0,1.89.68,3.47,2.06,4.75,1.37,1.29,3.04,2.29,5.01,3.02,1.97.73,4.88,1.65,8.74,2.76,5.14,1.37,9.36,2.76,12.66,4.18,3.3,1.41,6.15,3.49,8.54,6.23,2.4,2.74,3.64,6.38,3.73,10.92,0,4.03-1.11,7.62-3.34,10.79-2.23,3.17-5.38,5.65-9.44,7.45-4.07,1.8-8.84,2.7-14.33,2.7s-10.56-1.01-14.97-3.02Z"/>
    <path class="cls-1" d="M637.71,93.98v39.19c0,2.66.62,4.56,1.86,5.72,1.24,1.16,3.36,1.74,6.36,1.74h8.99v12.21h-11.56c-6.6,0-11.65-1.54-15.16-4.63-3.51-3.08-5.27-8.09-5.27-15.03v-39.19h-8.35v-11.95h8.35v-17.6h14.78v17.6h17.22v11.95h-17.22Z"/>
    <path class="cls-1" d="M681.01,149.43c-5.4-3.04-9.64-7.32-12.72-12.85-3.08-5.52-4.62-11.93-4.62-19.21s1.58-13.57,4.75-19.14c3.17-5.57,7.49-9.85,12.98-12.85,5.48-3,11.61-4.5,18.37-4.5s12.89,1.5,18.37,4.5c5.48,3,9.81,7.28,12.98,12.85,3.17,5.57,4.75,11.95,4.75,19.14s-1.63,13.58-4.88,19.14c-3.26,5.57-7.69,9.87-13.3,12.91-5.61,3.04-11.8,4.56-18.57,4.56s-12.72-1.52-18.12-4.56ZM709.73,138.57c3.3-1.8,5.97-4.5,8.03-8.09s3.08-7.97,3.08-13.11-.99-9.48-2.96-13.04c-1.97-3.55-4.58-6.23-7.84-8.03-3.26-1.8-6.77-2.7-10.54-2.7s-7.26.9-10.47,2.7-5.76,4.48-7.64,8.03c-1.89,3.56-2.83,7.9-2.83,13.04,0,7.62,1.95,13.51,5.85,17.67,3.9,4.16,8.8,6.23,14.71,6.23,3.77,0,7.3-.9,10.6-2.7Z"/>
    <path class="cls-1" d="M775.19,84.22c4.28-2.23,9.12-3.34,14.52-3.34,6.17,0,11.8,1.52,16.9,4.56,5.1,3.04,9.1,7.3,12.01,12.78,2.91,5.48,4.37,11.78,4.37,18.89s-1.46,13.47-4.37,19.08c-2.91,5.61-6.92,9.98-12.01,13.11-5.1,3.13-10.73,4.69-16.9,4.69-5.4,0-10.2-1.09-14.39-3.28-4.2-2.18-7.62-4.9-10.28-8.16v43.94h-14.65v-104.46h14.65v10.41c2.48-3.25,5.87-5.99,10.15-8.22ZM805.07,104.45c-2.01-3.55-4.67-6.25-7.97-8.09-3.3-1.84-6.83-2.76-10.6-2.76s-7.17.94-10.47,2.83c-3.3,1.88-5.95,4.63-7.97,8.22-2.01,3.6-3.02,7.84-3.02,12.72s1.01,9.14,3.02,12.79c2.01,3.64,4.67,6.4,7.97,8.29,3.3,1.88,6.79,2.83,10.47,2.83s7.3-.96,10.6-2.89c3.3-1.93,5.95-4.73,7.97-8.42,2.01-3.68,3.02-7.97,3.02-12.85s-1.01-9.1-3.02-12.66Z"/>
    <path class="cls-1" d="M888.58,84.35c4.24,2.31,7.58,5.74,10.02,10.28,2.44,4.54,3.66,10.02,3.66,16.45v41.76h-14.52v-39.57c0-6.34-1.59-11.2-4.75-14.58-3.17-3.38-7.5-5.08-12.98-5.08s-9.83,1.69-13.04,5.08c-3.21,3.38-4.82,8.25-4.82,14.58v39.57h-14.65V57.75h14.65v32.51c2.48-3,5.63-5.31,9.44-6.94,3.81-1.63,7.99-2.44,12.53-2.44,5.4,0,10.21,1.16,14.46,3.47Z"/>
    <path class="cls-1" d="M985.27,122.89h-54.09c.43,5.65,2.53,10.19,6.3,13.62,3.77,3.43,8.39,5.14,13.88,5.14,7.88,0,13.45-3.3,16.7-9.89h15.8c-2.14,6.51-6.02,11.84-11.63,16-5.61,4.16-12.57,6.23-20.88,6.23-6.77,0-12.83-1.52-18.18-4.56-5.35-3.04-9.55-7.32-12.59-12.85-3.04-5.52-4.56-11.93-4.56-19.21s1.48-13.68,4.43-19.21c2.96-5.52,7.11-9.79,12.46-12.78,5.35-3,11.5-4.5,18.44-4.5s12.63,1.46,17.86,4.37c5.22,2.91,9.29,7,12.21,12.27,2.91,5.27,4.37,11.33,4.37,18.18,0,2.66-.17,5.05-.51,7.2ZM970.49,111.07c-.09-5.4-2.01-9.72-5.78-12.98-3.77-3.25-8.44-4.88-14.01-4.88-5.05,0-9.38,1.61-12.98,4.82-3.6,3.21-5.74,7.56-6.42,13.04h39.19Z"/>
    <path class="cls-1" d="M1023.36,83.9c3.55-2.01,7.77-3.02,12.66-3.02v15.16h-3.73c-5.74,0-10.09,1.46-13.04,4.37-2.96,2.91-4.43,7.97-4.43,15.16v37.26h-14.65v-70.8h14.65v10.28c2.14-3.6,4.99-6.4,8.54-8.42Z"/>
    <path class="cls-1" d="M1113.88,122.89h-54.09c.43,5.65,2.53,10.19,6.3,13.62,3.77,3.43,8.39,5.14,13.88,5.14,7.88,0,13.45-3.3,16.7-9.89h15.8c-2.14,6.51-6.02,11.84-11.63,16-5.61,4.16-12.57,6.23-20.88,6.23-6.77,0-12.83-1.52-18.18-4.56-5.35-3.04-9.55-7.32-12.59-12.85-3.04-5.52-4.56-11.93-4.56-19.21s1.48-13.68,4.43-19.21c2.96-5.52,7.11-9.79,12.46-12.78,5.35-3,11.5-4.5,18.44-4.5s12.63,1.46,17.86,4.37c5.22,2.91,9.29,7,12.21,12.27,2.91,5.27,4.37,11.33,4.37,18.18,0,2.66-.17,5.05-.51,7.2ZM1099.1,111.07c-.09-5.4-2.01-9.72-5.78-12.98-3.77-3.25-8.44-4.88-14.01-4.88-5.05,0-9.38,1.61-12.98,4.82-3.6,3.21-5.74,7.56-6.42,13.04h39.19Z"/>
  </g>
</svg>